<svg width="14" height="8" viewBox="0 0 14 8" fill="none" xmlns="http://www.w3.org/2000/svg">
<path fill-rule="evenodd" clip-rule="evenodd" d="M6.64663 0.646894C6.69308 0.60033 6.74825 0.563387 6.809 0.538181C6.86974 0.512974 6.93486 0.5 7.00063 0.5C7.0664 0.5 7.13152 0.512974 7.19226 0.538181C7.25301 0.563387 7.30819 0.60033 7.35463 0.646894L13.3546 6.64689C13.4485 6.74078 13.5013 6.86812 13.5013 7.00089C13.5013 7.13367 13.4485 7.26101 13.3546 7.35489C13.2607 7.44878 13.1334 7.50153 13.0006 7.50153C12.8679 7.50153 12.7405 7.44878 12.6466 7.35489L7.00063 1.70789L1.35463 7.35489C1.26075 7.44878 1.13341 7.50153 1.00063 7.50153C0.867856 7.50153 0.740518 7.44878 0.646632 7.35489C0.552745 7.26101 0.5 7.13367 0.5 7.00089C0.5 6.86812 0.552745 6.74078 0.646632 6.64689L6.64663 0.646894Z" fill="#B4B4B4"/>
</svg>
