<svg width="16" height="16" viewBox="0 0 16 16" fill="none" xmlns="http://www.w3.org/2000/svg">
<path fill-rule="evenodd" clip-rule="evenodd" d="M7.64663 11.3531C7.69308 11.3997 7.74825 11.4366 7.809 11.4618C7.86974 11.487 7.93486 11.5 8.00063 11.5C8.0664 11.5 8.13152 11.487 8.19226 11.4618C8.25301 11.4366 8.30819 11.3997 8.35463 11.3531L14.3546 5.35311C14.4485 5.25922 14.5013 5.13188 14.5013 4.99911C14.5013 4.86633 14.4485 4.73899 14.3546 4.64511C14.2607 4.55122 14.1334 4.49847 14.0006 4.49847C13.8679 4.49847 13.7405 4.55122 13.6466 4.64511L8.00063 10.2921L2.35463 4.64511C2.26075 4.55122 2.13341 4.49847 2.00063 4.49847C1.86786 4.49847 1.74052 4.55122 1.64663 4.64511C1.55274 4.73899 1.5 4.86633 1.5 4.99911C1.5 5.13188 1.55274 5.25922 1.64663 5.35311L7.64663 11.3531Z" fill="#424242"/>
</svg>
